<?xml version="1.0" encoding="utf-8"?>
<svg version="1.1" xmlns:xlink="http://www.w3.org/1999/xlink" width="30px" height="36px" xmlns="http://www.w3.org/2000/svg">
  <g transform="matrix(1 0 0 1 -24 -224 )">
    <path d="M 29.9090909090909 27.1356783919598  C 29.9090909090909 26.4572864321608  29.2272727272727 25.7788944723618  28.5454545454545 25.7788944723618  C 27.8636363636364 25.7788944723618  27.1818181818182 26.4572864321608  27.1818181818182 27.1356783919598  L 27.1818181818182 31.2060301507538  C 27.1818181818182 32.3366834170854  26.7272727272727 33.2412060301508  25.8181818181818 33  L 4.22727272727273 33  C 3.54545454545455 33.2412060301508  2.86363636363636 32.5628140703518  3 31.6582914572864  L 3 6.78391959798995  C 2.86363636363636 5.87939698492462  3.54545454545454 5.42713567839196  4.22727272727273 5.42713567839196  L 6.27272727272727 5.42713567839196  C 6.5 6.78391959798995  7.86363636363636 7.68844221105528  9.22727272727273 8  L 20.3636363636364 8  C 21.9545454545455 7.68844221105528  23.0909090909091 6.55778894472362  23.5454545454545 5.20100502512563  L 26.2727272727273 5.20100502512563  C 26.5 5.20100502512563  26.9545454545455 5.42713567839196  27 5.87939698492462  L 27 20.3517587939698  C 26.9545454545455 21.0301507537688  27.6363636363636 21.7085427135678  28.3181818181818 21.7085427135678  C 29 21.7085427135678  29.6818181818182 21.0301507537688  29.6818181818182 20.3517587939698  L 29.6818181818182 5.87939698492462  C 29.6818181818182 4.07035175879397  28.0909090909091 2.48743718592965  26.2727272727273 2.48743718592965  L 23.5454545454545 2.48743718592965  C 23.5454545454545 1.13065326633166  22.4090909090909 0  21.0454545454545 0  L 9.22727272727273 0  C 7.63636363636364 0  6.5 1.13065326633166  6.04545454545454 2.48743718592965  L 4.22727272727273 2.48743718592965  C 1.95454545454545 2.71356783919598  0.136363636363636 4.52261306532663  0.136363636363636 6.78391959798995  L 0.136363636363636 31.8844221105528  C 0.136363636363636 34.1457286432161  1.95454545454545 35.9547738693467  4.22727272727273 36  L 25.8181818181818 36  C 28.0909090909091 35.9547738693467  29.9090909090909 33.9195979899498  29.9090909090909 31.2060301507538  L 29.9090909090909 27.1356783919598  Z M 8.77272727272727 4.52261306532663  L 8.77272727272727 3.39195979899498  C 8.77272727272727 3.16582914572864  9 2.93969849246231  9.22727272727273 3  L 20.5909090909091 3  C 20.8181818181818 2.93969849246231  21.0454545454545 3.16582914572864  21.0454545454545 3.39195979899498  L 21.0454545454545 4.52261306532663  C 21.0454545454545 4.74874371859296  20.8181818181818 4.9748743718593  20.5909090909091 5  L 9.22727272727273 5  C 9 4.9748743718593  8.77272727272727 4.74874371859296  8.77272727272727 4.52261306532663  Z " fill-rule="nonzero" fill="#ffffff" stroke="none" transform="matrix(1 0 0 1 24 224 )" />
  </g>
</svg>