<?xml version="1.0" encoding="utf-8"?>
<svg version="1.1" xmlns:xlink="http://www.w3.org/1999/xlink" width="30px" height="36px" xmlns="http://www.w3.org/2000/svg">
  <g transform="matrix(1 0 0 1 -24 -786 )">
    <path d="M 14.4648014839208 12.4865006484375  C 14.4648014839208 11.1088195664063  13.3872826703307 9.9883755703125  12.0569422183866 9.9883755703125  C 10.7258896016533 9.9883755703125  9.6480147056686 11.10881953125  9.6480147056686 12.4865006484375  C 9.6480147056686 13.866431625  10.7255334858739 14.9846257265625  12.0569422183866 14.9846257265625  C 13.386926587936 14.9846257265625  14.4648014839208 13.866431625  14.4648014839208 12.4865006484375  Z M 17.7578925994731 21.9607769882812  C 18.5092358666424 22.7407379765625  19.7299015722656 22.7407379765625  20.4830252514081 21.9604019765625  L 21.1631511048783 21.2550622382813  C 21.9162747840207 20.4751012148438  21.9162747840207 19.2095394960938  21.1631511048783 18.4295785078125  L 19.9862841013354 17.21013946875  C 20.3658726746457 16.5269236289062  20.6621369326853 15.7930853203125  20.8708038199491 15.0149992148437  L 22.1413216951308 15.0149992148437  C 23.2053091774164 15.0149992148437  24.0691758834484 14.1206689335937  24.0691758834484 13.017849046875  L 24.0691758834484 12.0181490507813  C 24.0691758834484 10.9153291640625  23.2053092108012 10.0187490234375  22.1413216951308 10.0187490234375  L 20.8854033984375 10.0187490234375  C 20.687063034157 9.251912390625  20.4014813814953 8.52032394140625  20.0322193311682 7.8412329140625  L 21.1631511382631 6.670166484375  C 21.9162748174055 5.88795556640625  21.9162748174055 4.62239384765625  21.1631511382631 3.84468275390625  L 20.4830252847929 3.13709312109375  C 19.7299016056504 2.35713209765625  18.5092359000273 2.35713209765625  17.7582487486374 3.13709312109375  L 16.6483260365189 4.2860356875  C 15.9714049579851 3.8773061015625  15.2389342914244 3.55894702734375  14.4648014839208 3.3392080546875  L 14.4648014839208 1.99677515625  C 14.4648014839208 0.89433028125  13.6020030584575 0  12.5380155427871 0  L 11.5751566958121 0  C 10.5111692135265 0  9.64837078806323 0.89433028125  9.64837078806323 1.99715016796875  L 9.64837078806323 3.33958306640625  C 8.87423798055959 3.55932207421875  8.14212342977834 3.878056125  7.46377798828125 4.28641069921875  L 6.35599180391533 3.1374681328125  C 5.60393637195676 2.357507109375  4.38327069971839 2.357507109375  3.63121526775981 3.1374681328125  L 2.95002113372093 3.845057765625  C 2.19796570176235 4.62276889453125  2.19796570176235 5.88833061328125  2.95002113372093 6.67054149609375  L 4.08095294081577 7.84160792578125  C 3.7127591376726 8.520698953125  3.42682140261628 9.25228740234375  3.22848103833575 10.0191240351563  L 1.97149449445857 10.0191240351563  C 0.906082582440044 10.0191240703125  0.0443524375454214 10.915329234375  0.0443524375454214 12.0185240625  L 0.0443524375454214 13.0182240585938  C 0.0443524375454214 14.1210439453125  0.906082582440044 15.0153742265625  1.97113834529433 15.0153742265625  L 3.24272450104469 15.0153742265625  C 3.44925489394077 15.7930853554687  3.74658736577943 16.5269236289062  4.12546380768532 17.2105144804687  L 2.94966505132631 18.4299535195312  C 2.19760961936773 19.2099145429688  2.19760961936773 20.4754762617188  2.94966505132631 21.25543725  L 3.63085918536519 21.9607769882812  C 4.38291461732376 22.7407380117188  5.60358028956214 22.7407380117188  6.35563572152071 21.9607769882812  L 7.5385562259266 20.7345883007813  C 8.19589257244731 21.121193953125  8.9030810217569 21.4245538242188  9.6480147056686 21.633043359375  L 9.6480147056686 22.9139792929688  C 9.6480147056686 24.0167991796875  10.5108131311319 24.9111294609375  11.5748006134175 24.9111294609375  L 12.5376594603924 24.9111294609375  C 13.6016469426781 24.9111294609375  14.4644453681414 24.0167991796875  14.4644453681414 22.9139792929688  L 14.4644453681414 21.633043359375  C 15.2104473326217 21.4241788125  15.9165675347475 21.121193953125  16.5728355673147 20.7345883007813  L 17.7578925994731 21.9607769882812  Z M 17.3555144858285 12.5502475078125  C 17.3555144858285 15.5823458554688  14.9832639271439 18.0429728554688  12.0569422183866 18.0429728554688  C 9.13062050962936 18.0429728554688  6.75730167037609 15.5819709140625  6.75730167037609 12.5502475078125  C 6.75730167037609 9.5136493359375  9.13062050962936 7.055272265625  12.0569422183866 7.055272265625  C 14.9832639271439 7.055272265625  17.3555144858285 9.5140243125  17.3555144858285 12.5502475078125  Z M 29.9552914466751 29.7450127617188  C 29.9556475624546 29.2091645390625  29.538313787927 28.7760611953125  29.0209195918877 28.7760611953125  L 28.4116549695676 28.7760611953125  C 28.3155115211664 28.4025798632813  28.1780620142169 28.0489725351562  27.9985942505451 27.7193640234375  L 28.5451875367914 27.1501425  C 28.9123130593659 26.7721614140625  28.9123130593659 26.1590670703125  28.5451875367914 25.7792110664063  L 28.2154511330396 25.4364781992187  C 27.8504621382177 25.0584971132813  27.2597140341116 25.0584971132813  26.8925884781523 25.4364781992187  L 26.3563216815044 25.9944502851563  C 26.0287218055051 25.7968351757813  25.6719227725291 25.6408429570313  25.2983876333121 25.5350982304688  L 25.2983876333121 24.88488075  C 25.2983876333121 24.3486575859375  24.878917331032 23.9159291835938  24.3636596627453 23.9159291835938  L 23.8961176362645 23.9159291835938  C 23.3787234402253 23.9159291835938  22.9613896656977 24.3486575507813  22.9613896656977 24.88488075  L 22.9613896656977 25.5350982304688  C 22.5857180654978 25.6404679453125  22.2310555602743 25.7964601640625  21.9013191231377 25.9944502851563  L 21.3629157987373 25.4364781992187  C 20.9997072158884 25.0584971132813  20.4071786998092 25.0584971132813  20.0421896716025 25.4364781992187  L 19.7103167400981 25.7792110664063  C 19.3471081572493 26.159442046875  19.3471081572493 26.7721614140625  19.7103167400981 27.1501425  L 20.259046554097 27.7193640234375  C 20.0817153181777 28.0489725351562  19.9439096954488 28.4025798632812  19.8459858350745 28.7760611953125  L 19.237433477698 28.7760611953125  C 18.7221758094113 28.7760611953125  18.3027055071312 29.2087895625  18.3027055071312 29.7450127617188  L 18.3027055071312 30.2283635976563  C 18.3027055071312 30.7645867617188  18.7221758094113 31.1973151640625  19.237433477698 31.1973151640625  L 19.8548880618641 31.1973151640625  C 19.9549484499909 31.57529625  20.0991636225927 31.9311534726562  20.282548359375 32.2630118789062  L 19.711028971657 32.853982359375  C 19.3478203888081 33.2319634453125  19.3478203888081 33.8450577890625  19.711028971657 34.2249137929687  L 20.0429019031613 34.565396765625  C 20.4078908979833 34.9456277460937  21.0004194474473 34.9456277460937  21.3636280302962 34.565396765625  L 21.9394204735193 33.9721764257812  C 22.2566938599201 34.1589170742187  22.5988933144077 34.3062847265625  22.9617458148619 34.4071546523437  L 22.9617458148619 35.0288735625  C 22.9617458148619 35.5628468671875  23.3790795893895 35.9978251289062  23.8964737854288 35.9978251289062  L 24.3640158119095 35.9978251289062  C 24.8792734801962 35.9978251289062  25.2987437824764 35.5628469023437  25.2987437824764 35.0288735625  L 25.2987437824764 34.4071546523437  C 25.6576793098201 34.3059097148437  26.0020153254451 34.1589170742187  26.321069123819 33.9721764257812  L 26.8925885115371 34.565396765625  C 27.2597140341116 34.9456277460937  27.850106055823 34.9456277460937  28.2154511664244 34.565396765625  L 28.5451875701762 34.2249137929687  C 28.9123130927507 33.8446828125  28.9123130927507 33.2319634453125  28.5451875701762 32.853982359375  L 27.9754485944313 32.2630118789062  C 28.1591894136083 31.9311534726562  28.3030484704306 31.57529625  28.4031088919422 31.1973151640625  L 29.0205634761083 31.1973151640625  C 29.5379576721475 31.1973151640625  29.9552914466751 30.764586796875  29.9552914466751 30.2283635976563  L 29.9552914466751 29.7450127617188  Z M 26.701013779524 30.0022498828125  C 26.701013779524 31.4740513125  25.549072844068 32.667241640625  24.1304228231741 32.667241640625  C 22.7096363079124 32.667241640625  21.5598318668241 31.4740513125  21.5598318668241 30.0022498828125  C 21.5598318668241 28.530448453125  22.7096363079124 27.337258125  24.1304228231741 27.337258125  C 25.5490728106831 27.337258125  26.701013779524 28.530448453125  26.701013779524 30.0022498828125  Z M 25.2987437490916 29.971501453125  C 25.2987437824764 29.3032848164063  24.7749400365643 28.7606869804688  24.1304228231741 28.7606869804688  C 23.4837690820312 28.7606869804688  22.9621018972565 29.3032848515625  22.9621018972565 29.971501453125  C 22.9621018972565 30.6415929375  23.4837691488009 31.1823159257812  24.1304228231741 31.1823159257812  C 24.7752960855741 31.1823159257812  25.2987437490916 30.6419679140625  25.2987437490916 29.971501453125  Z " fill-rule="nonzero" fill="#ffffff" stroke="none" transform="matrix(1 0 0 1 24 786 )" />
  </g>
</svg>