<?xml version="1.0" encoding="utf-8"?>
<svg version="1.1" xmlns:xlink="http://www.w3.org/1999/xlink" width="27px" height="30px" xmlns="http://www.w3.org/2000/svg">
  <g transform="matrix(1 0 0 1 -24 -583 )">
    <path d="M 26.55029296875 6.043505859375  C 26.549951171875 2.86923828125  24.130712890625 0.295849609375001  21.146142578125 0.295849609375  L 5.653515625 0.295849609375  C 2.6689453125 0.295849609375  0.249365234374999 2.86923828125  0.249365234374999 6.043505859375  L 0.249365234374999 29.177001953125  L 2.933837890625 26.32197265625  C 3.30673828125 25.92548828125  3.9171875 25.92548828125  4.290087890625 26.32197265625  L 6.813916015625 29.0064453125  L 9.41806640625 26.236865234375  C 9.801220703125 25.829443359375  10.42841796875 25.829443359375  10.811572265625 26.236865234375  L 13.41025390625 29.000634765625  L 16.008935546875 26.236865234375  C 16.39208984375 25.829443359375  17.019287109375 25.829443359375  17.40244140625 26.236865234375  L 17.438330078125 26.2748046875  L 19.331201171875 24.52001953125  C 19.3240234375 24.501904296875  19.316845703125 24.4837890625  19.30966796875 24.46533203125  C 19.0369140625 23.745849609375  18.913525390625 22.9880859375  18.942919921875 22.212548828125  C 18.95830078125 21.808544921875  19.0150390625 21.41240234375  19.11142578125 21  L 7.071630859375 21  C 5.97890625 21.02685546875  5.093310546875 20.3412109375  5.093310546875 19.49560546875  L 5.093310546875 19.48193359375  C 5.093310546875 18.636328125  5.979248046875 17.95068359375  7.071630859375 18  L 19.896533203125 18  C 20.2455078125 17.95068359375  20.573291015625 18.020751953125  20.8580078125 18.143798828125  C 21.386767578125 17.67109375  21.989697265625 17.304345703125  22.651416015625 17.053466796875  C 23.3708984375 16.780712890625  24.128662109375 16.65732421875  24.90419921875 16.68671875  C 25.469873046875 16.708251953125  26.021533203125 16.810791015625  26.55029296875 16.991943359375  L 26.55029296875 6.043505859375  Z M 21.874853515625 13.433154296875  L 21.874853515625 13.446826171875  C 21.874853515625 14.292431640625  20.988916015625 14.978076171875  19.896533203125 15  L 7.071630859375 15  C 5.97890625 14.978076171875  5.093310546875 14.292431640625  5.093310546875 13.446826171875  L 5.093310546875 13.433154296875  C 5.093310546875 12.587548828125  5.979248046875 11.901904296875  7.071630859375 12  L 19.896533203125 12  C 20.9892578125 11.901904296875  21.874853515625 12.587548828125  21.874853515625 13.433154296875  Z M 21.874853515625 7.384716796875  L 21.874853515625 7.398388671875  C 21.874853515625 8.243994140625  20.988916015625 8.929638671875  19.896533203125 9  L 7.071630859375 9  C 5.97890625 8.929638671875  5.093310546875 8.243994140625  5.093310546875 7.398388671875  L 5.093310546875 7.384716796875  C 5.093310546875 6.539111328125  5.979248046875 5.853466796875  7.071630859375 6  L 19.896533203125 6  C 20.9892578125 5.853466796875  21.874853515625 6.539111328125  21.874853515625 7.384716796875  Z " fill-rule="nonzero" fill="#ffffff" stroke="none" transform="matrix(1 0 0 1 24 583 )" />
  </g>
</svg>