<?xml version="1.0" encoding="utf-8"?>
<svg version="1.1" xmlns:xlink="http://www.w3.org/1999/xlink" width="30px" height="30px" xmlns="http://www.w3.org/2000/svg">
  <g transform="matrix(1 0 0 1 -24 -139 )">
    <path d="M 29.9968833398438 15.8747517480469  L 14.1221316210938 15.8747517480469  L 14.1221316210938 0  C 22.8895149074486 0  29.9968833398438 7.107368461692  29.9968833398438 15.8747517480469  Z M 26.4691607519531 12.3470291308594  C 26.4691607519531 9.4595881640625  20.2603689550781 3.5277226171875  17.6498542089844 3.5277226171875  L 17.6498542089844 12.3470291308594  L 26.4691607519531 12.3470291308594  Z M 12.3582703125 5.4679700390625  C 7.27219996815514 6.31881364787798  3.54407033910588 10.718006619816  3.53896379882812 15.8747517480469  C 3.53894907436184 15.881953535375  3.53894171212292 15.8891553358747  3.53894171212292 15.8963571382553  C 3.53894171212292 21.7325119512176  8.27007997533254 26.4636502144272  14.1062347882948 26.4636502144272  C 19.2700232336583 26.4636502144272  23.6775466580572 22.7317344619972  24.5289133007813 17.6386130273438  L 28.1130794824219 17.6386130273438  C 27.2298305776797 24.6995629297394  21.2272868788519 29.9980325351525  14.1113089311718 29.9980325351525  C 6.31807933492868 29.9980325351525  0.00041849171866261 23.6803716919424  0.00041849171866261 15.8871420956993  C 0.00041849171866261 8.77176611493293  5.29801665019866 2.76953242350461  12.3582703125 1.885567734375  L 12.3582703125 5.4679700390625  Z " fill-rule="nonzero" fill="#333333" stroke="none" transform="matrix(1 0 0 1 24 139 )" />
  </g>
</svg>