<?xml version="1.0" encoding="utf-8"?>
<svg version="1.1" xmlns:xlink="http://www.w3.org/1999/xlink" width="25px" height="25px" xmlns="http://www.w3.org/2000/svg">
  <g transform="matrix(1 0 0 1 -1321 -47 )">
    <path d="M 24.27734375 13.1277901785714  C 24.5724051339286 12.7668108258929  24.5724051339286 12.2488839285714  24.2804827008929 11.8816266741071  L 20.2783203125 6.88127790178571  C 20.0837053571429 6.63957868303571  19.794921875 6.50460379464286  19.4967215401786 6.50460379464286  C 19.3868582589286 6.50460379464286  19.2738560267857 6.5234375  19.1671316964286 6.56110491071429  C 18.7653459821429 6.70235770089286  18.49853515625 7.08217075892857  18.49853515625 7.50592912946429  L 18.49853515625 10.5067661830357  L 10.4942103794643 10.5067661830357  C 9.38929966517857 10.5067661830357  8.49469866071428 11.4013671875  8.49469866071428 12.5062779017857  C 8.49469866071428 13.6111886160714  9.38929966517857 14.5057896205357  10.4942103794643 14.5057896205357  L 18.4953962053571 14.5057896205357  L 18.4953962053571 17.5066266741071  C 18.4953962053571 17.9303850446429  18.7653459821429 18.3101981026786  19.1639927455357 18.4514508928571  C 19.2738560267857 18.4891183035714  19.3837193080357 18.5079520089286  19.4935825892857 18.5079520089286  C 19.7917829241071 18.5079520089286  20.08056640625 18.3729771205357  20.2751813616071 18.1312779017857  L 24.27734375 13.1277901785714  Z M 16.4958844866071 22.51953125  C 16.4958844866071 21.4083426339286  15.59814453125 20.5106026785714  14.4932338169643 20.5106026785714  L 6.47635323660714 20.5106026785714  C 5.380859375 20.5106026785714  4.48939732142857 19.6160016741071  4.48939732142857 18.5110909598214  L 4.48939732142857 6.50460379464286  L 4.48939732142857 6.48890904017857  C 4.48939732142857 5.39341517857143  5.38399832589286 4.50509207589286  6.49204799107143 4.50509207589286  L 14.4932338169643 4.50509207589286  C 15.59814453125 4.50509207589286  16.4958844866071 3.61049107142857  16.4958844866071 2.50558035714286  C 16.4958844866071 1.40066964285714  15.6012834821429 0.506068638392858  14.4932338169643 1  L 4.48939732142857 1  C 2.27957589285714 0.506068638392858  0.487234933035715 2.29840959821429  0.487234933035715 4.50823102678572  L 0.487234933035715 20.5168805803571  C 0.487234933035715 22.7267020089286  2.27957589285714 24.51904296875  4.48939732142857 24.51904296875  L 14.4932338169643 24.51904296875  C 15.59814453125 24.51904296875  16.4958844866071 23.6244419642857  16.4958844866071 22.51953125  Z " fill-rule="nonzero" fill="#9b9191" stroke="none" transform="matrix(1 0 0 1 1321 47 )" />
  </g>
</svg>